<svg xmlns="http://www.w3.org/2000/svg" xmlns:xlink="http://www.w3.org/1999/xlink" viewBox="0 0 430 430" width="430" height="430" preserveAspectRatio="xMidYMid meet" style="width: 100%; height: 100%; transform: translate3d(0px, 0px, 0px); content-visibility: visible;"><defs><clipPath id="__lottie_element_51"><rect width="430" height="430" x="0" y="0"/></clipPath><clipPath id="__lottie_element_53"><path d="M0,0 L430,0 L430,430 L0,430z"/></clipPath><clipPath id="__lottie_element_73"><path d="M0,0 L430,0 L430,430 L0,430z"/></clipPath><g id="__lottie_element_88"><g transform="matrix(0.9995918273925781,0.0285686906427145,-0.0285686906427145,0.9995918273925781,225.43426513671875,70.58000946044922)" opacity="1" style="display: block;"><g opacity="1" transform="matrix(1,0,0,1,0,0)"><path fill="rgb(255,199,56)" fill-opacity="1" d=" M0,17.5 C8.261624336242676,17.5 14.954293251037598,9.668000221252441 14.954293251037598,0 C14.954293251037598,-9.668000221252441 8.261624336242676,-17.5 0,-17.5 C-8.261624336242676,-17.5 -14.954293251037598,-9.668000221252441 -14.954293251037598,0 C-14.954293251037598,9.668000221252441 -8.261624336242676,17.5 0,17.5z"/></g></g></g><filter id="__lottie_element_94" filterUnits="objectBoundingBox" x="0%" y="0%" width="100%" height="100%"><feComponentTransfer in="SourceGraphic"><feFuncA type="table" tableValues="1.0 0.0"/></feComponentTransfer></filter><mask id="__lottie_element_88_2" mask-type="alpha"><g filter="url(#__lottie_element_94)"><rect width="430" height="430" x="0" y="0" fill="#ffffff" opacity="0"/><use xmlns:ns1="http://www.w3.org/1999/xlink" ns1:href="#__lottie_element_88"/></g></mask><clipPath id="__lottie_element_177"><path d="M0,0 L430,0 L430,430 L0,430z"/></clipPath><clipPath id="__lottie_element_199"><path d="M0,0 L430,0 L430,430 L0,430z"/></clipPath></defs><g clip-path="url(#__lottie_element_51)"><g clip-path="url(#__lottie_element_53)" transform="matrix(1,0,0,1,0,0)" opacity="1" style="display: block;"><g transform="matrix(0.9995918273925781,0.0285686906427145,-0.0285686906427145,0.9995918273925781,209.27354431152344,336.57489013671875)" opacity="1" style="display: block;"><g opacity="1" transform="matrix(1,0,0,1,0,0)"><path stroke-linecap="round" stroke-linejoin="round" fill-opacity="0" class="primary" stroke="rgb(18,19,49)" stroke-opacity="1" stroke-width="7" d=" M-78.39527893066406,22.840478897094727 C-78.39527893066406,22.840478897094727 -61.24751281738281,-22.092071533203125 -61.24751281738281,-22.092071533203125 M78.17403411865234,29.217248916625977 C78.17403411865234,29.217248916625977 61.33454895019531,-22.092071533203125 61.33454895019531,-22.092071533203125"/></g></g><g transform="matrix(0.9995918273925781,0.0285686906427145,-0.0285686906427145,0.9995918273925781,213.7430877685547,112.10796356201172)" opacity="1" style="display: block;"><g opacity="1" transform="matrix(1,0,0,1,0,0)"><path stroke-linecap="round" stroke-linejoin="round" fill-opacity="0" class="quinary" stroke="rgb(58,51,71)" stroke-opacity="1" stroke-width="7" d=" M0,18.844999313354492 C0,18.844999313354492 0,-18.844999313354492 0,-18.844999313354492"/></g></g><g transform="matrix(0.9995918273925781,0.0285686906427145,-0.0285686906427145,0.9995918273925781,209.3649444580078,265.29541015625)" opacity="1" style="display: block;"><g opacity="1" transform="matrix(1,0,0,1,0,0)"><path class="quinary" fill="rgb(58,51,71)" fill-opacity="1" d=" M95.08000183105469,-50.840999603271484 C102.19100189208984,-50.7239990234375 109.26499938964844,-49.80500030517578 116.16999816894531,-48.10100173950195 C159.2100067138672,-37.941001892089844 186.8000030517578,-22.250999450683594 186.8000030517578,-4.651000022888184 C186.8000030517578,17.138999938964844 144.32000732421875,36.0890007019043 82.55000305175781,45.138999938964844 C55.20500183105469,49.013999938964844 27.618000030517578,50.91899871826172 0,50.8390007019043 C-27.621000289916992,50.91899871826172 -55.21200180053711,49.013999938964844 -82.55999755859375,45.138999938964844 C-144.32000732421875,36.07899856567383 -186.8000030517578,17.179000854492188 -186.8000030517578,-4.651000022888184 C-186.8000030517578,-22.000999450683594 -160.0399932861328,-37.48099899291992 -118.04000091552734,-47.6510009765625 C-116.80999755859375,-47.95100021362305 -115.2300033569336,-48.26100158691406 -113.9800033569336,-48.49100112915039 C-107.4219970703125,-49.729000091552734 -100.78600311279297,-50.513999938964844 -94.12000274658203,-50.840999603271484"/></g></g><g transform="matrix(0.9995918273925781,0.0285686906427145,-0.0285686906427145,0.9995918273925781,122.03060150146484,262.7993469238281)" opacity="0.5" style="mix-blend-mode: multiply; display: block;"><g opacity="1" transform="matrix(1,0,0,1,0,0)"><path class="quinary" fill="rgb(58,51,71)" fill-opacity="1" d=" M-75.30000305175781,-4.651000022888184 C-75.30000305175781,17.138999938964844 -32.810001373291016,36.07899856567383 28.950000762939453,45.138999938964844 C28.950000762939453,45.138999938964844 28.950000762939453,45.138999938964844 28.950000762939453,45.138999938964844 C52.30400085449219,48.46500015258789 75.84300231933594,50.32899856567383 99.43000030517578,50.71900177001953 C95.44000244140625,50.78900146484375 91.41999816894531,50.8390007019043 87.37000274658203,50.8390007019043 C59.749000549316406,50.91899871826172 32.15800094604492,49.013999938964844 4.809999942779541,45.138999938964844 C-56.95000076293945,36.07899856567383 -99.43000030517578,17.179000854492188 -99.43000030517578,-4.651000022888184 C-99.43000030517578,-22.000999450683594 -72.66999816894531,-37.48099899291992 -30.670000076293945,-47.6510009765625 C-29.440000534057617,-47.95100021362305 -27.860000610351562,-48.26100158691406 -26.610000610351562,-48.49100112915039 C-20.052000045776367,-49.729000091552734 -13.416000366210938,-50.513999938964844 -6.75,-50.840999603271484 C-6.75,-50.840999603271484 17.389999389648438,-50.840999603271484 17.389999389648438,-50.840999603271484 C10.723999977111816,-50.513999938964844 4.0879998207092285,-49.729000091552734 -2.4700000286102295,-48.49100112915039 C-3.7200000286102295,-48.26100158691406 -5.300000190734863,-47.95100021362305 -6.539999961853027,-47.6510009765625 C-48.5,-37.48099899291992 -75.30000305175781,-22.000999450683594 -75.30000305175781,-4.651000022888184z"/></g></g><g transform="matrix(0.9995918273925781,0.0285686906427145,-0.0285686906427145,0.9995918273925781,209.36508178710938,265.2904052734375)" opacity="1" style="display: block;"><g opacity="1" transform="matrix(1,0,0,1,0,0)"><path stroke-linecap="round" stroke-linejoin="round" fill-opacity="0" class="primary" stroke="rgb(18,19,49)" stroke-opacity="1" stroke-width="7" d=" M95.08000183105469,-50.84000015258789 C105.7699966430664,-50.84000015258789 116.16999816894531,-48.099998474121094 116.16999816894531,-48.099998474121094 C159.1999969482422,-37.939998626708984 186.8000030517578,-22.25 186.8000030517578,-4.650000095367432 C186.8000030517578,17.190000534057617 144.32000732421875,36.09000015258789 82.55000305175781,45.13999938964844 C57.65999984741211,48.779998779296875 29.639999389648438,50.84000015258789 0,50.84000015258789 C-29.639999389648438,50.84000015258789 -57.66999816894531,48.790000915527344 -82.55999755859375,45.13999938964844 C-144.30999755859375,36.08000183105469 -186.8000030517578,17.18000030517578 -186.8000030517578,-4.650000095367432 C-186.8000030517578,-22 -160.00999450683594,-37.47999954223633 -118.04000091552734,-47.650001525878906 C-116.80999755859375,-47.95000076293945 -115.2300033569336,-48.2599983215332 -113.9800033569336,-48.4900016784668 C-102.56999969482422,-50.58000183105469 -94.13999938964844,-50.83000183105469 -94.13999938964844,-50.83000183105469"/></g></g><g clip-path="url(#__lottie_element_73)" transform="matrix(0.9995918273925781,0.0285686906427145,-0.0285686906427145,0.9995918273925781,2.161177635192871,-3.5588810443878174)" opacity="1" style="display: block;"><g transform="matrix(1,0,0,1,215.7815399169922,265.5294494628906)" opacity="1" style="display: block;"><g opacity="1" transform="matrix(1,0,0,1,0,0)"><path stroke-linecap="round" stroke-linejoin="round" fill-opacity="0" class="secondary" stroke="rgb(242,76,0)" stroke-opacity="1" stroke-width="12" d=" M-134.94500732421875,-14.998000144958496 C-134.94500732421875,-14.998000144958496 -135.0449981689453,-14.998000144958496 -135.0449981689453,-14.998000144958496"/></g></g><g transform="matrix(1,0,0,1,200.7672119140625,268.6300048828125)" opacity="1" style="display: block;"><g opacity="1" transform="matrix(1,0,0,1,0,0)"><path stroke-linecap="round" stroke-linejoin="round" fill-opacity="0" class="secondary" stroke="rgb(242,76,0)" stroke-opacity="1" stroke-width="12" d=" M-69.94400024414062,9.998000144958496 C-69.94400024414062,9.998000144958496 -70.04399871826172,9.998000144958496 -70.04399871826172,9.998000144958496"/></g></g><g transform="matrix(1,0,0,1,203.615478515625,270.1142272949219)" opacity="1" style="display: block;"><g opacity="1" transform="matrix(1,0,0,1,0,0)"><path stroke-linecap="round" stroke-linejoin="round" fill-opacity="0" class="secondary" stroke="rgb(242,76,0)" stroke-opacity="1" stroke-width="12" d=" M0.052000001072883606,14.998000144958496 C0.052000001072883606,14.998000144958496 -0.04800000041723251,14.998000144958496 -0.04800000041723251,14.998000144958496"/></g></g><g transform="matrix(1,0,0,1,203.83767700195312,272.2242431640625)" opacity="1" style="display: block;"><g opacity="1" transform="matrix(1,0,0,1,0,0)"><path stroke-linecap="round" stroke-linejoin="round" fill-opacity="0" class="secondary" stroke="rgb(242,76,0)" stroke-opacity="1" stroke-width="12" d=" M70.0510025024414,9.998000144958496 C70.0510025024414,9.998000144958496 69.95099639892578,9.998000144958496 69.95099639892578,9.998000144958496"/></g></g><g transform="matrix(1,0,0,1,213.3966064453125,275.16827392578125)" opacity="1" style="display: block;"><g opacity="1" transform="matrix(1,0,0,1,0,0)"><path stroke-linecap="round" stroke-linejoin="round" fill-opacity="0" class="secondary" stroke="rgb(242,76,0)" stroke-opacity="1" stroke-width="12" d=" M135.0449981689453,-14.991999626159668 C135.0449981689453,-14.991999626159668 134.94500732421875,-14.991999626159668 134.94500732421875,-14.991999626159668"/></g></g><g transform="matrix(1,0,0,1,184.927978515625,246.73191833496094)" opacity="1" style="display: block;"><g opacity="1" transform="matrix(1,0,0,1,0,0)"><path stroke-linecap="round" stroke-linejoin="round" fill-opacity="0" class="secondary" stroke="rgb(242,76,0)" stroke-opacity="1" stroke-width="12" d=" M135.0449981689453,-14.991999626159668 C135.0449981689453,-14.991999626159668 134.94500732421875,-14.991999626159668 134.94500732421875,-14.991999626159668"/></g></g></g><g clip-path="url(#__lottie_element_177)" transform="matrix(0.9966254830360413,0.08208296447992325,-0.08208296447992325,0.9966254830360413,28.72466468811035,-19.56865692138672)" opacity="1" style="display: none;"><g transform="matrix(1,0,0,1,260.7650451660156,247.55662536621094)" opacity="1" style="display: block;"><g opacity="1" transform="matrix(1,0,0,1,0,0)"><path stroke-linecap="round" stroke-linejoin="round" fill-opacity="0" class="secondary" stroke="rgb(242,76,0)" stroke-opacity="1" stroke-width="6.460799999999882" d=" M-134.94500732421875,-14.998000144958496 C-134.94500732421875,-14.998000144958496 -135.0449981689453,-14.998000144958496 -135.0449981689453,-14.998000144958496"/></g></g><g transform="matrix(1,0,0,1,149.9073486328125,245.22218322753906)" opacity="1" style="display: block;"><g opacity="1" transform="matrix(1,0,0,1,0,0)"><path stroke-linecap="round" stroke-linejoin="round" fill-opacity="0" class="secondary" stroke="rgb(242,76,0)" stroke-opacity="1" stroke-width="12" d=" M-69.94400024414062,9.998000144958496 C-69.94400024414062,9.998000144958496 -70.04399871826172,9.998000144958496 -70.04399871826172,9.998000144958496"/></g></g><g transform="matrix(1,0,0,1,145.76783752441406,265.25421142578125)" opacity="1" style="display: block;"><g opacity="1" transform="matrix(1,0,0,1,0,0)"><path stroke-linecap="round" stroke-linejoin="round" fill-opacity="0" class="secondary" stroke="rgb(242,76,0)" stroke-opacity="1" stroke-width="12" d=" M0.052000001072883606,14.998000144958496 C0.052000001072883606,14.998000144958496 -0.04800000041723251,14.998000144958496 -0.04800000041723251,14.998000144958496"/></g></g><g transform="matrix(1,0,0,1,145.80056762695312,275.0295104980469)" opacity="1" style="display: block;"><g opacity="1" transform="matrix(1,0,0,1,0,0)"><path stroke-linecap="round" stroke-linejoin="round" fill-opacity="0" class="secondary" stroke="rgb(242,76,0)" stroke-opacity="1" stroke-width="12" d=" M70.0510025024414,9.998000144958496 C70.0510025024414,9.998000144958496 69.95099639892578,9.998000144958496 69.95099639892578,9.998000144958496"/></g></g><g transform="matrix(1,0,0,1,150.87103271484375,294.896484375)" opacity="1" style="display: block;"><g opacity="1" transform="matrix(1,0,0,1,0,0)"><path stroke-linecap="round" stroke-linejoin="round" fill-opacity="0" class="secondary" stroke="rgb(242,76,0)" stroke-opacity="1" stroke-width="12" d=" M135.0449981689453,-14.991999626159668 C135.0449981689453,-14.991999626159668 134.94500732421875,-14.991999626159668 134.94500732421875,-14.991999626159668"/></g></g><g transform="matrix(1,0,0,1,214.99441528320312,269.7956848144531)" opacity="1" style="display: block;"><g opacity="1" transform="matrix(1,0,0,1,0,0)"><path stroke-linecap="round" stroke-linejoin="round" fill-opacity="0" class="secondary" stroke="rgb(242,76,0)" stroke-opacity="1" stroke-width="12" d=" M135.0449981689453,-14.991999626159668 C135.0449981689453,-14.991999626159668 134.94500732421875,-14.991999626159668 134.94500732421875,-14.991999626159668"/></g></g></g><g clip-path="url(#__lottie_element_199)" transform="matrix(1,0,0,1,0,0)" opacity="1" style="display: none;"><g transform="matrix(1,0,0,1,261.49798583984375,247.5019989013672)" opacity="1" style="display: block;"><g opacity="1" transform="matrix(1,0,0,1,0,0)"><path stroke-linecap="round" stroke-linejoin="round" fill-opacity="0" class="secondary" stroke="rgb(242,76,0)" stroke-opacity="1" stroke-width="6" d=" M-134.94500732421875,-14.998000144958496 C-134.94500732421875,-14.998000144958496 -135.0449981689453,-14.998000144958496 -135.0449981689453,-14.998000144958496"/></g></g><g transform="matrix(1,0,0,1,149.89700317382812,245.00599670410156)" opacity="1" style="display: block;"><g opacity="1" transform="matrix(1,0,0,1,0,0)"><path stroke-linecap="round" stroke-linejoin="round" fill-opacity="0" class="secondary" stroke="rgb(242,76,0)" stroke-opacity="1" stroke-width="12" d=" M-69.94400024414062,9.998000144958496 C-69.94400024414062,9.998000144958496 -70.04399871826172,9.998000144958496 -70.04399871826172,9.998000144958496"/></g></g><g transform="matrix(1,0,0,1,144.90200805664062,265.00201416015625)" opacity="1" style="display: block;"><g opacity="1" transform="matrix(1,0,0,1,0,0)"><path stroke-linecap="round" stroke-linejoin="round" fill-opacity="0" class="secondary" stroke="rgb(242,76,0)" stroke-opacity="1" stroke-width="12" d=" M0.052000001072883606,14.998000144958496 C0.052000001072883606,14.998000144958496 -0.04800000041723251,14.998000144958496 -0.04800000041723251,14.998000144958496"/></g></g><g transform="matrix(1,0,0,1,144.89898681640625,275.00201416015625)" opacity="1" style="display: block;"><g opacity="1" transform="matrix(1,0,0,1,0,0)"><path stroke-linecap="round" stroke-linejoin="round" fill-opacity="0" class="secondary" stroke="rgb(242,76,0)" stroke-opacity="1" stroke-width="12" d=" M70.0510025024414,9.998000144958496 C70.0510025024414,9.998000144958496 69.95099639892578,9.998000144958496 69.95099639892578,9.998000144958496"/></g></g><g transform="matrix(1,0,0,1,149.90399169921875,294.99200439453125)" opacity="1" style="display: block;"><g opacity="1" transform="matrix(1,0,0,1,0,0)"><path stroke-linecap="round" stroke-linejoin="round" fill-opacity="0" class="secondary" stroke="rgb(242,76,0)" stroke-opacity="1" stroke-width="12" d=" M135.0449981689453,-14.991999626159668 C135.0449981689453,-14.991999626159668 134.94500732421875,-14.991999626159668 134.94500732421875,-14.991999626159668"/></g></g><g transform="matrix(1,0,0,1,214.99700927734375,270.0019836425781)" opacity="1" style="display: block;"><g opacity="1" transform="matrix(1,0,0,1,0,0)"><path stroke-linecap="round" stroke-linejoin="round" fill-opacity="0" class="secondary" stroke="rgb(242,76,0)" stroke-opacity="1" stroke-width="12" d=" M135.0449981689453,-14.991999626159668 C135.0449981689453,-14.991999626159668 134.94500732421875,-14.991999626159668 134.94500732421875,-14.991999626159668"/></g></g></g><g transform="matrix(0.9995918273925781,0.0285686906427145,-0.0285686906427145,0.9995918273925781,211.40716552734375,193.83958435058594)" opacity="1" style="display: block;"><g opacity="1" transform="matrix(1,0,0,1,0,0)"><path class="quaternary" fill="rgb(235,230,239)" fill-opacity="1" d=" M93.08899688720703,45.29399871826172 C93.78299713134766,40.70199966430664 94.13999938964844,35.99599838256836 94.13999938964844,31.209999084472656 C94.13999938964844,-20.780000686645508 51.9900016784668,-62.93000030517578 0,-62.93000030517578 C-51.9900016784668,-62.93000030517578 -94.13999938964844,-20.790000915527344 -94.13999938964844,31.200000762939453 C-94.13999938964844,35.986000061035156 -93.78299713134766,40.69300079345703 -93.08899688720703,45.28499984741211 C-92.93199920654297,46.32600021362305 -92.2239990234375,47.19499969482422 -91.24099731445312,47.56999969482422 C-65.91999816894531,57.22100067138672 -34.292999267578125,62.93000030517578 0,62.93000030517578 C34.292999267578125,62.93000030517578 65.91799926757812,57.21200180053711 91.23899841308594,47.58000183105469 C92.2229995727539,47.20600128173828 92.93199920654297,46.334999084472656 93.08899688720703,45.29399871826172z"/></g></g><g transform="matrix(0.9995918273925781,0.0285686906427145,-0.0285686906427145,0.9995918273925781,174.24488830566406,189.32806396484375)" opacity="0.5" style="mix-blend-mode: multiply; display: block;"><g opacity="1" transform="matrix(1,0,0,1,0,0)"><path class="quaternary" fill="rgb(235,230,239)" fill-opacity="1" d=" M-26.86400032043457,44.87699890136719 C-26.86400032043457,-5.696000099182129 9.111000061035156,-47.862998962402344 56.86399841308594,-57.44200134277344 C50.54499816894531,-58.77899932861328 43.99300003051758,-59.481998443603516 37.2760009765625,-59.481998443603516 C-14.71399974822998,-59.481998443603516 -56.86399841308594,-17.341999053955078 -56.86399841308594,34.64799880981445 C-56.86399841308594,39.433998107910156 -56.50699996948242,44.14099884033203 -55.8129997253418,48.733001708984375 C-55.65599822998047,49.77399826049805 -54.94499969482422,50.64400100708008 -53.96200180053711,51.01900100708008 C-45.28200149536133,54.32699966430664 -35.861000061035156,57.17100143432617 -25.84600067138672,59.481998443603516 C-26.51799964904785,54.71200180053711 -26.86400032043457,49.83300018310547 -26.86400032043457,44.87699890136719z"/></g></g><g transform="matrix(0.9995918273925781,0.0285686906427145,-0.0285686906427145,0.9995918273925781,214.7814178466797,75.77779388427734)" opacity="1" style="display: block;"><g opacity="1" transform="matrix(1,0,0,1,0,0)"><path class="tertiary" fill="rgb(255,199,56)" fill-opacity="1" d=" M0,17.5 C8.261624336242676,17.5 14.954293251037598,9.668000221252441 14.954293251037598,0 C14.954293251037598,-9.668000221252441 8.261624336242676,-17.5 0,-17.5 C-8.261624336242676,-17.5 -14.954293251037598,-9.668000221252441 -14.954293251037598,0 C-14.954293251037598,9.668000221252441 -8.261624336242676,17.5 0,17.5z"/></g></g><g mask="url(#__lottie_element_88_2)" style="mix-blend-mode: multiply; display: block;"><g transform="matrix(0.9995918273925781,0.0285686906427145,-0.0285686906427145,0.9995918273925781,214.7814178466797,75.77779388427734)" opacity="0.5"><g opacity="1" transform="matrix(1,0,0,1,0,0)"><path class="tertiary" fill="rgb(255,199,56)" fill-opacity="1" d=" M0,17.5 C8.261624336242676,17.5 14.954293251037598,9.668000221252441 14.954293251037598,0 C14.954293251037598,-9.668000221252441 8.261624336242676,-17.5 0,-17.5 C-8.261624336242676,-17.5 -14.954293251037598,-9.668000221252441 -14.954293251037598,0 C-14.954293251037598,9.668000221252441 -8.261624336242676,17.5 0,17.5z"/></g></g></g><g transform="matrix(0.9995918273925781,0.0285686906427145,-0.0285686906427145,0.9995918273925781,212.4453582763672,157.51441955566406)" opacity="1" style="display: block;"><g opacity="1" transform="matrix(1,0,0,1,0,0)"><path stroke-linecap="round" stroke-linejoin="round" fill-opacity="0" class="primary" stroke="rgb(18,19,49)" stroke-opacity="1" stroke-width="7" d=" M0,-26.58099937438965 C0,-26.58099937438965 0,-64.2699966430664 0,-64.2699966430664 M0,-64.2699966430664 C7.669933795928955,-64.2699966430664 13.883402824401855,-72.10199737548828 13.883402824401855,-81.7699966430664 C13.883402824401855,-91.43800354003906 7.669933795928955,-99.2699966430664 0,-99.2699966430664 C-7.669933795928955,-99.2699966430664 -13.883506774902344,-91.43800354003906 -13.883506774902344,-81.7699966430664 C-13.883506774902344,-72.10199737548828 -7.669933795928955,-64.2699966430664 0,-64.2699966430664z M92.81999969482422,83.30999755859375 C93.69000244140625,78.19000244140625 94.13999938964844,72.91999816894531 94.13999938964844,67.55000305175781 C94.13999938964844,15.5600004196167 51.9900016784668,-26.59000015258789 0,-26.59000015258789 C-51.9900016784668,-26.59000015258789 -94.13999938964844,15.550000190734863 -94.13999938964844,67.54000091552734 C-94.13999938964844,72.91000366210938 -93.69000244140625,78.18000030517578 -92.81999969482422,83.30000305175781 C-67.23999786376953,93.31999969482422 -35.0099983215332,99.2699966430664 0,99.2699966430664 C35.0099983215332,99.2699966430664 67.23999786376953,93.30999755859375 92.81999969482422,83.30999755859375z"/></g></g></g></g></svg>